<svg width="128" height="128" viewBox="0 0 128 128" fill="none" xmlns="http://www.w3.org/2000/svg">
<path d="M22.5806 73.336L12.1646 80.392C13.1726 83.304 14.7406 85.936 16.8686 88.288C18.9966 90.64 21.5446 92.488 24.5126 93.832C27.4806 95.176 30.7566 95.848 34.3406 95.848C38.2046 95.848 41.8726 95.092 45.3446 93.58C48.8726 92.012 51.7846 89.8 54.0806 86.944C56.4326 84.088 57.8046 80.7 58.1966 76.78C58.4206 73.756 58.0286 71.124 57.0206 68.884C56.0686 66.644 54.6126 64.74 52.6526 63.172C50.7486 61.548 48.5086 60.26 45.9326 59.308C44.5326 58.748 43.1326 58.188 41.7326 57.628C40.3886 57.068 39.1566 56.452 38.0366 55.78C36.9726 55.108 36.1326 54.352 35.5166 53.512C34.9566 52.672 34.7606 51.748 34.9286 50.74C34.9846 49.732 35.3206 48.864 35.9366 48.136C36.6086 47.408 37.4486 46.848 38.4566 46.456C39.4646 46.008 40.6126 45.784 41.9006 45.784C43.5806 45.784 45.0086 46.092 46.1846 46.708C47.3606 47.268 48.3686 48.08 49.2086 49.144C50.1046 50.152 50.8886 51.3 51.5606 52.588L62.7326 46.792C61.7806 44.44 60.4366 42.284 58.7006 40.324C56.9646 38.364 54.8086 36.796 52.2326 35.62C49.6566 34.444 46.6046 33.856 43.0766 33.856C39.2686 33.8 35.7126 34.472 32.4086 35.872C29.1606 37.272 26.4726 39.26 24.3446 41.836C22.2166 44.356 20.9846 47.38 20.6486 50.908C20.4246 53.316 20.6766 55.472 21.4046 57.376C22.1886 59.28 23.2246 60.96 24.5126 62.416C25.8566 63.872 27.3126 65.132 28.8806 66.196C30.5046 67.204 32.0726 68.016 33.5846 68.632C35.6006 69.472 37.3926 70.284 38.9606 71.068C40.5286 71.796 41.7326 72.636 42.5726 73.588C43.4126 74.484 43.7206 75.688 43.4966 77.2C43.4406 78.376 43.0206 79.468 42.2366 80.476C41.4526 81.428 40.4446 82.184 39.2126 82.744C37.9806 83.304 36.6086 83.584 35.0966 83.584C33.0806 83.584 31.2886 83.164 29.7206 82.324C28.2086 81.428 26.8646 80.224 25.6886 78.712C24.5686 77.144 23.5326 75.352 22.5806 73.336ZM73.604 73.336L63.188 80.392C64.196 83.304 65.764 85.936 67.892 88.288C70.02 90.64 72.568 92.488 75.536 93.832C78.504 95.176 81.78 95.848 85.364 95.848C89.228 95.848 92.896 95.092 96.368 93.58C99.896 92.012 102.808 89.8 105.104 86.944C107.456 84.088 108.828 80.7 109.22 76.78C109.444 73.756 109.052 71.124 108.044 68.884C107.092 66.644 105.636 64.74 103.676 63.172C101.772 61.548 99.532 60.26 96.956 59.308C95.556 58.748 94.156 58.188 92.756 57.628C91.412 57.068 90.18 56.452 89.06 55.78C87.996 55.108 87.156 54.352 86.54 53.512C85.98 52.672 85.784 51.748 85.952 50.74C86.008 49.732 86.344 48.864 86.96 48.136C87.632 47.408 88.472 46.848 89.48 46.456C90.488 46.008 91.636 45.784 92.924 45.784C94.604 45.784 96.032 46.092 97.208 46.708C98.384 47.268 99.392 48.08 100.232 49.144C101.128 50.152 101.912 51.3 102.584 52.588L113.756 46.792C112.804 44.44 111.46 42.284 109.724 40.324C107.988 38.364 105.832 36.796 103.256 35.62C100.68 34.444 97.628 33.856 94.1 33.856C90.292 33.8 86.736 34.472 83.432 35.872C80.184 37.272 77.496 39.26 75.368 41.836C73.24 44.356 72.008 47.38 71.672 50.908C71.448 53.316 71.7 55.472 72.428 57.376C73.212 59.28 74.248 60.96 75.536 62.416C76.88 63.872 78.336 65.132 79.904 66.196C81.528 67.204 83.096 68.016 84.608 68.632C86.624 69.472 88.416 70.284 89.984 71.068C91.552 71.796 92.756 72.636 93.596 73.588C94.436 74.484 94.744 75.688 94.52 77.2C94.464 78.376 94.044 79.468 93.26 80.476C92.476 81.428 91.468 82.184 90.236 82.744C89.004 83.304 87.632 83.584 86.12 83.584C84.104 83.584 82.312 83.164 80.744 82.324C79.232 81.428 77.888 80.224 76.712 78.712C75.592 77.144 74.556 75.352 73.604 73.336Z" fill="black"/>
<path d="M22.5806 73.336L24.3891 72.482L23.392 70.3706L21.4589 71.6802L22.5806 73.336ZM12.1646 80.392L11.0429 78.7362L9.77278 79.5965L10.2746 81.0462L12.1646 80.392ZM16.8686 88.288L18.3516 86.9462L18.3516 86.9462L16.8686 88.288ZM24.5126 93.832L25.3376 92.0101L25.3376 92.0101L24.5126 93.832ZM45.3446 93.58L46.1431 95.4137L46.15 95.4107L46.1568 95.4076L45.3446 93.58ZM54.0806 86.944L52.5367 85.6726L52.5292 85.6817L52.5218 85.6909L54.0806 86.944ZM58.1966 76.78L60.1866 76.979L60.1892 76.9534L60.1911 76.9277L58.1966 76.78ZM57.0206 68.884L55.1799 69.6663L55.1881 69.6856L55.1967 69.7047L57.0206 68.884ZM52.6526 63.172L51.3547 64.6937L51.3786 64.7141L51.4032 64.7337L52.6526 63.172ZM45.9326 59.308L45.1898 61.165L45.2144 61.1748L45.2393 61.184L45.9326 59.308ZM41.7326 57.628L40.9633 59.4742L40.9765 59.4796L40.9898 59.485L41.7326 57.628ZM38.0366 55.78L36.9686 57.471L36.9879 57.4832L37.0076 57.495L38.0366 55.78ZM35.5166 53.512L33.8525 54.6214L33.8773 54.6586L33.9038 54.6947L35.5166 53.512ZM34.9286 50.74L36.9014 51.0688L36.9194 50.9605L36.9255 50.8509L34.9286 50.74ZM35.9366 48.136L34.467 46.7794L34.4377 46.8112L34.4098 46.8441L35.9366 48.136ZM38.4566 46.456L39.1815 48.32L39.2256 48.3028L39.2688 48.2836L38.4566 46.456ZM46.1846 46.708L45.2566 48.4797L45.2903 48.4973L45.3247 48.5137L46.1846 46.708ZM49.2086 49.144L47.6388 50.3833L47.675 50.4291L47.7137 50.4727L49.2086 49.144ZM51.5606 52.588L49.7874 53.5131L50.7104 55.2822L52.4816 54.3633L51.5606 52.588ZM62.7326 46.792L63.6536 48.5673L65.2694 47.729L64.5865 46.0416L62.7326 46.792ZM58.7006 40.324L60.1977 38.9979L60.1977 38.9979L58.7006 40.324ZM52.2326 35.62L53.0631 33.8006L53.0631 33.8006L52.2326 35.62ZM43.0766 33.856L43.0472 35.8558L43.0619 35.856H43.0766V33.856ZM32.4086 35.872L31.6283 34.0305L31.6169 34.0353L32.4086 35.872ZM24.3446 41.836L25.8726 43.1264L25.8796 43.1181L25.8865 43.1098L24.3446 41.836ZM20.6486 50.908L18.6576 50.7184L18.6572 50.7228L20.6486 50.908ZM21.4046 57.376L19.5365 58.0903L19.5455 58.114L19.5552 58.1375L21.4046 57.376ZM24.5126 62.416L23.0146 63.7411L23.0286 63.757L23.043 63.7726L24.5126 62.416ZM28.8806 66.196L27.7576 67.8509L27.7912 67.8738L27.8258 67.8953L28.8806 66.196ZM33.5846 68.632L34.3538 66.7858L34.3465 66.7828L34.3392 66.7798L33.5846 68.632ZM38.9606 71.068L38.0661 72.8569L38.0921 72.8698L38.1183 72.882L38.9606 71.068ZM42.5726 73.588L41.0729 74.9112L41.0929 74.9339L41.1135 74.9559L42.5726 73.588ZM43.4966 77.2L41.5182 76.9069L41.5036 77.0054L41.4988 77.1049L43.4966 77.2ZM42.2366 80.476L43.7804 81.7474L43.7981 81.7259L43.8153 81.7039L42.2366 80.476ZM39.2126 82.744L38.385 80.9233L38.385 80.9233L39.2126 82.744ZM29.7206 82.324L28.701 84.0446L28.7381 84.0666L28.7761 84.087L29.7206 82.324ZM25.6886 78.712L24.0611 79.8745L24.0848 79.9077L24.1099 79.9399L25.6886 78.712ZM21.4589 71.6802L11.0429 78.7362L13.2863 82.0478L23.7023 74.9918L21.4589 71.6802ZM10.2746 81.0462C11.3732 84.22 13.0824 87.0843 15.3855 89.6298L18.3516 86.9462C16.3987 84.7877 14.9719 82.388 14.0545 79.7378L10.2746 81.0462ZM15.3855 89.6298C17.7027 92.1909 20.4766 94.1999 23.6875 95.6539L25.3376 92.0101C22.6126 90.7761 20.2905 89.0891 18.3516 86.9462L15.3855 89.6298ZM23.6875 95.6539C26.9397 97.1266 30.5007 97.848 34.3406 97.848V93.848C31.0124 93.848 28.0214 93.2254 25.3376 92.0101L23.6875 95.6539ZM34.3406 97.848C38.4736 97.848 42.414 97.0376 46.1431 95.4137L44.546 91.7463C41.3312 93.1464 37.9355 93.848 34.3406 93.848V97.848ZM46.1568 95.4076C49.9598 93.7174 53.1331 91.3147 55.6393 88.1971L52.5218 85.6909C50.4361 88.2853 47.7853 90.3066 44.5323 91.7524L46.1568 95.4076ZM55.6244 88.2154C58.2446 85.0338 59.7579 81.2659 60.1866 76.979L56.2065 76.581C55.8512 80.1341 54.6205 83.1422 52.5367 85.6726L55.6244 88.2154ZM60.1911 76.9277C60.434 73.6486 60.0175 70.6701 58.8444 68.0633L55.1967 69.7047C56.0396 71.5779 56.4071 73.8634 56.202 76.6323L60.1911 76.9277ZM58.8612 68.1017C57.7756 65.5472 56.1121 63.3784 53.902 61.6103L51.4032 64.7337C53.113 66.1016 54.3616 67.7408 55.1799 69.6663L58.8612 68.1017ZM53.9505 61.6503C51.8507 59.8594 49.4012 58.4577 46.6259 57.432L45.2393 61.184C47.6159 62.0623 49.6464 63.2366 51.3547 64.6937L53.9505 61.6503ZM46.6753 57.451C45.2753 56.891 43.8753 56.331 42.4753 55.771L40.9898 59.485C42.3898 60.045 43.7898 60.605 45.1898 61.165L46.6753 57.451ZM42.5018 55.7818C41.2374 55.255 40.0934 54.6817 39.0656 54.065L37.0076 57.495C38.2197 58.2223 39.5397 58.881 40.9633 59.4742L42.5018 55.7818ZM39.1045 54.089C38.2095 53.5237 37.5699 52.93 37.1294 52.3293L33.9038 54.6947C34.6952 55.774 35.7357 56.6923 36.9686 57.471L39.1045 54.089ZM37.1807 52.4026C36.9063 51.9911 36.8157 51.5824 36.9014 51.0688L32.9558 50.4112C32.7054 51.9136 33.0068 53.3529 33.8525 54.6214L37.1807 52.4026ZM36.9255 50.8509C36.9589 50.2501 37.1454 49.8036 37.4633 49.4279L34.4098 46.8441C33.4957 47.9244 33.0103 49.2139 32.9316 50.6291L36.9255 50.8509ZM37.4062 49.4926C37.8534 49.0081 38.4307 48.612 39.1815 48.32L37.7317 44.592C36.4665 45.084 35.3638 45.8079 34.467 46.7794L37.4062 49.4926ZM39.2688 48.2836C39.9818 47.9667 40.8459 47.784 41.9006 47.784V43.784C40.3792 43.784 38.9473 44.0493 37.6443 44.6284L39.2688 48.2836ZM41.9006 47.784C43.3411 47.784 44.4329 48.0482 45.2566 48.4797L47.1126 44.9363C45.5842 44.1358 43.82 43.784 41.9006 43.784V47.784ZM45.3247 48.5137C46.2124 48.9364 46.9809 49.5499 47.6388 50.3833L50.7783 47.9047C49.7562 46.6101 48.5088 45.5996 47.0444 44.9023L45.3247 48.5137ZM47.7137 50.4727C48.4927 51.3491 49.1855 52.3594 49.7874 53.5131L53.3337 51.6629C52.5917 50.2406 51.7164 48.9549 50.7034 47.8153L47.7137 50.4727ZM52.4816 54.3633L63.6536 48.5673L61.8115 45.0167L50.6395 50.8127L52.4816 54.3633ZM64.5865 46.0416C63.5464 43.4721 62.0796 41.1226 60.1977 38.9979L57.2034 41.6501C58.7935 43.4453 60.0147 45.4079 60.8787 47.5424L64.5865 46.0416ZM60.1977 38.9979C58.2617 36.8121 55.8724 35.0831 53.0631 33.8006L51.402 37.4394C53.7447 38.5089 55.6674 39.9159 57.2034 41.6501L60.1977 38.9979ZM53.0631 33.8006C50.1706 32.4801 46.8227 31.856 43.0766 31.856V35.856C46.3865 35.856 49.1426 36.4079 51.402 37.4394L53.0631 33.8006ZM43.106 31.8562C39.0373 31.7964 35.2037 32.5155 31.6283 34.0305L33.1889 37.7135C36.2214 36.4285 39.4998 35.8036 43.0472 35.8558L43.106 31.8562ZM31.6169 34.0353C28.0953 35.5533 25.1444 37.7275 22.8026 40.5622L25.8865 43.1098C27.8007 40.7925 30.2259 38.9907 33.2002 37.7086L31.6169 34.0353ZM22.8165 40.5456C20.4058 43.4004 19.0292 46.8167 18.6576 50.7184L22.6396 51.0976C22.94 47.9433 24.0273 45.3116 25.8726 43.1264L22.8165 40.5456ZM18.6572 50.7228C18.41 53.3796 18.6803 55.8512 19.5365 58.0903L23.2727 56.6617C22.6728 55.0928 22.4391 53.2524 22.64 51.0932L18.6572 50.7228ZM19.5552 58.1375C20.419 60.2354 21.5703 62.1085 23.0146 63.7411L26.0106 61.0909C24.8788 59.8115 23.9581 58.3246 23.2539 56.6145L19.5552 58.1375ZM23.043 63.7726C24.486 65.3358 26.0574 66.6972 27.7576 67.8509L30.0036 64.541C28.5678 63.5668 27.2272 62.4082 25.9822 61.0594L23.043 63.7726ZM27.8258 67.8953C29.5297 68.9528 31.198 69.8193 32.83 70.4842L34.3392 66.7798C32.9471 66.2127 31.4794 65.4551 29.9353 64.4967L27.8258 67.8953ZM32.8153 70.4782C34.7987 71.3046 36.5477 72.0976 38.0661 72.8569L39.855 69.2791C38.2374 68.4704 36.4024 67.6394 34.3538 66.7858L32.8153 70.4782ZM38.1183 72.882C39.521 73.5332 40.4692 74.227 41.0729 74.9112L44.0722 72.2648C42.996 71.045 41.5362 70.0588 39.8028 69.254L38.1183 72.882ZM41.1135 74.9559C41.4353 75.2991 41.6767 75.8364 41.5182 76.9069L45.475 77.4931C45.7644 75.5396 45.3899 73.6689 44.0316 72.2201L41.1135 74.9559ZM41.4988 77.1049C41.4641 77.8339 41.2113 78.5365 40.6579 79.2481L43.8153 81.7039C44.8298 80.3995 45.417 78.9181 45.4943 77.2951L41.4988 77.1049ZM40.6927 79.2046C40.1207 79.8991 39.3669 80.4769 38.385 80.9233L40.0402 84.5647C41.5223 83.8911 42.7844 82.9569 43.7804 81.7474L40.6927 79.2046ZM38.385 80.9233C37.4418 81.352 36.3567 81.584 35.0966 81.584V85.584C36.8604 85.584 38.5193 85.256 40.0402 84.5647L38.385 80.9233ZM35.0966 81.584C33.3656 81.584 31.9057 81.2257 30.665 80.561L28.7761 84.087C30.6714 85.1023 32.7955 85.584 35.0966 85.584V81.584ZM30.7402 80.6034C29.4624 79.8462 28.3033 78.8162 27.2673 77.4841L24.1099 79.9399C25.4258 81.6318 26.9547 83.0098 28.701 84.0446L30.7402 80.6034ZM27.316 77.5495C26.2753 76.0925 25.2978 74.4064 24.3891 72.482L20.7721 74.19C21.7673 76.2976 22.8619 78.1955 24.0611 79.8745L27.316 77.5495ZM73.604 73.336L75.4125 72.482L74.4155 70.3706L72.4823 71.6802L73.604 73.336ZM63.188 80.392L62.0663 78.7362L60.7962 79.5965L61.298 81.0462L63.188 80.392ZM67.892 88.288L69.3751 86.9462L69.3751 86.9462L67.892 88.288ZM75.536 93.832L76.361 92.0101L76.361 92.0101L75.536 93.832ZM96.368 93.58L97.1665 95.4137L97.1734 95.4107L97.1803 95.4076L96.368 93.58ZM105.104 86.944L103.56 85.6726L103.553 85.6817L103.545 85.6909L105.104 86.944ZM109.22 76.78L111.21 76.979L111.213 76.9534L111.215 76.9277L109.22 76.78ZM108.044 68.884L106.203 69.6663L106.212 69.6856L106.22 69.7047L108.044 68.884ZM103.676 63.172L102.378 64.6937L102.402 64.7141L102.427 64.7337L103.676 63.172ZM96.956 59.308L96.2132 61.165L96.2378 61.1748L96.2627 61.184L96.956 59.308ZM92.756 57.628L91.9868 59.4742L92 59.4796L92.0132 59.485L92.756 57.628ZM89.06 55.78L87.992 57.471L88.0114 57.4832L88.031 57.495L89.06 55.78ZM86.54 53.512L84.8759 54.6214L84.9007 54.6586L84.9272 54.6947L86.54 53.512ZM85.952 50.74L87.9248 51.0688L87.9428 50.9605L87.9489 50.8509L85.952 50.74ZM86.96 48.136L85.4904 46.7794L85.4611 46.8112L85.4332 46.8441L86.96 48.136ZM89.48 46.456L90.2049 48.32L90.249 48.3028L90.2923 48.2836L89.48 46.456ZM97.208 46.708L96.28 48.4797L96.3137 48.4973L96.3481 48.5137L97.208 46.708ZM100.232 49.144L98.6622 50.3833L98.6984 50.4291L98.7372 50.4727L100.232 49.144ZM102.584 52.588L100.811 53.5131L101.734 55.2822L103.505 54.3633L102.584 52.588ZM113.756 46.792L114.677 48.5673L116.293 47.729L115.61 46.0416L113.756 46.792ZM109.724 40.324L111.221 38.9979L111.221 38.9979L109.724 40.324ZM103.256 35.62L104.087 33.8006L104.087 33.8006L103.256 35.62ZM94.1 33.856L94.0706 35.8558L94.0853 35.856H94.1V33.856ZM83.432 35.872L82.6517 34.0305L82.6403 34.0353L83.432 35.872ZM75.368 41.836L76.8961 43.1264L76.903 43.1181L76.9099 43.1098L75.368 41.836ZM71.672 50.908L69.681 50.7184L69.6806 50.7228L71.672 50.908ZM72.428 57.376L70.5599 58.0903L70.569 58.114L70.5786 58.1375L72.428 57.376ZM75.536 62.416L74.038 63.7411L74.052 63.757L74.0664 63.7726L75.536 62.416ZM79.904 66.196L78.781 67.8509L78.8147 67.8738L78.8493 67.8953L79.904 66.196ZM84.608 68.632L85.3772 66.7858L85.3699 66.7828L85.3626 66.7798L84.608 68.632ZM89.984 71.068L89.0896 72.8569L89.1155 72.8698L89.1418 72.882L89.984 71.068ZM93.596 73.588L92.0963 74.9112L92.1163 74.9339L92.1369 74.9559L93.596 73.588ZM94.52 77.2L92.5416 76.9069L92.527 77.0054L92.5223 77.1049L94.52 77.2ZM93.26 80.476L94.8039 81.7474L94.8216 81.7259L94.8387 81.7039L93.26 80.476ZM90.236 82.744L89.4084 80.9233L89.4084 80.9233L90.236 82.744ZM80.744 82.324L79.7244 84.0446L79.7615 84.0666L79.7996 84.087L80.744 82.324ZM76.712 78.712L75.0845 79.8745L75.1082 79.9077L75.1333 79.9399L76.712 78.712ZM72.4823 71.6802L62.0663 78.7362L64.3097 82.0478L74.7257 74.9918L72.4823 71.6802ZM61.298 81.0462C62.3966 84.22 64.1058 87.0843 66.4089 89.6298L69.3751 86.9462C67.4222 84.7877 65.9954 82.388 65.078 79.7378L61.298 81.0462ZM66.4089 89.6298C68.7261 92.1909 71.5 94.1999 74.711 95.6539L76.361 92.0101C73.636 90.7761 71.3139 89.0891 69.3751 86.9462L66.4089 89.6298ZM74.711 95.6539C77.9631 97.1266 81.5242 97.848 85.364 97.848V93.848C82.0358 93.848 79.0449 93.2254 76.361 92.0101L74.711 95.6539ZM85.364 97.848C89.497 97.848 93.4374 97.0376 97.1665 95.4137L95.5695 91.7463C92.3546 93.1464 88.959 93.848 85.364 93.848V97.848ZM97.1803 95.4076C100.983 93.7174 104.156 91.3147 106.663 88.1971L103.545 85.6909C101.46 88.2853 98.8088 90.3066 95.5557 91.7524L97.1803 95.4076ZM106.648 88.2154C109.268 85.0338 110.781 81.2659 111.21 76.979L107.23 76.581C106.875 80.1341 105.644 83.1422 103.56 85.6726L106.648 88.2154ZM111.215 76.9277C111.457 73.6486 111.041 70.6701 109.868 68.0633L106.22 69.7047C107.063 71.5779 107.431 73.8634 107.225 76.6323L111.215 76.9277ZM109.885 68.1017C108.799 65.5472 107.136 63.3784 104.925 61.6103L102.427 64.7337C104.136 66.1016 105.385 67.7408 106.203 69.6663L109.885 68.1017ZM104.974 61.6503C102.874 59.8594 100.425 58.4577 97.6493 57.432L96.2627 61.184C98.6394 62.0623 100.67 63.2366 102.378 64.6937L104.974 61.6503ZM97.6988 57.451C96.2988 56.891 94.8988 56.331 93.4988 55.771L92.0132 59.485C93.4132 60.045 94.8132 60.605 96.2132 61.165L97.6988 57.451ZM93.5252 55.7818C92.2609 55.255 91.1169 54.6817 90.089 54.065L88.031 57.495C89.2431 58.2223 90.5631 58.881 91.9868 59.4742L93.5252 55.7818ZM90.128 54.089C89.2329 53.5237 88.5933 52.93 88.1528 52.3293L84.9272 54.6947C85.7187 55.774 86.7591 56.6923 87.992 57.471L90.128 54.089ZM88.2041 52.4026C87.9298 51.9911 87.8392 51.5824 87.9248 51.0688L83.9792 50.4112C83.7288 51.9136 84.0302 53.3529 84.8759 54.6214L88.2041 52.4026ZM87.9489 50.8509C87.9823 50.2501 88.1688 49.8036 88.4868 49.4279L85.4332 46.8441C84.5192 47.9244 84.0337 49.2139 83.9551 50.6291L87.9489 50.8509ZM88.4296 49.4926C88.8768 49.0081 89.4541 48.612 90.2049 48.32L88.7551 44.592C87.4899 45.084 86.3872 45.8079 85.4904 46.7794L88.4296 49.4926ZM90.2923 48.2836C91.0053 47.9667 91.8694 47.784 92.924 47.784V43.784C91.4026 43.784 89.9707 44.0493 88.6677 44.6284L90.2923 48.2836ZM92.924 47.784C94.3645 47.784 95.4563 48.0482 96.28 48.4797L98.136 44.9363C96.6077 44.1358 94.8435 43.784 92.924 43.784V47.784ZM96.3481 48.5137C97.2358 48.9364 98.0043 49.5499 98.6622 50.3833L101.802 47.9047C100.78 46.6101 99.5322 45.5996 98.0679 44.9023L96.3481 48.5137ZM98.7372 50.4727C99.5162 51.3491 100.209 52.3594 100.811 53.5131L104.357 51.6629C103.615 50.2406 102.74 48.9549 101.727 47.8153L98.7372 50.4727ZM103.505 54.3633L114.677 48.5673L112.835 45.0167L101.663 50.8127L103.505 54.3633ZM115.61 46.0416C114.57 43.4721 113.103 41.1226 111.221 38.9979L108.227 41.6501C109.817 43.4453 111.038 45.4079 111.902 47.5424L115.61 46.0416ZM111.221 38.9979C109.285 36.8121 106.896 35.0831 104.087 33.8006L102.425 37.4394C104.768 38.5089 106.691 39.9159 108.227 41.6501L111.221 38.9979ZM104.087 33.8006C101.194 32.4801 97.8461 31.856 94.1 31.856V35.856C97.4099 35.856 100.166 36.4079 102.425 37.4394L104.087 33.8006ZM94.1294 31.8562C90.0608 31.7964 86.2272 32.5155 82.6517 34.0305L84.2123 37.7135C87.2448 36.4285 90.5232 35.8036 94.0706 35.8558L94.1294 31.8562ZM82.6403 34.0353C79.1187 35.5533 76.1678 37.7275 73.8261 40.5622L76.9099 43.1098C78.8242 40.7925 81.2493 38.9907 84.2237 37.7086L82.6403 34.0353ZM73.8399 40.5456C71.4293 43.4004 70.0526 46.8167 69.681 50.7184L73.663 51.0976C73.9634 47.9433 75.0507 45.3116 76.8961 43.1264L73.8399 40.5456ZM69.6806 50.7228C69.4334 53.3796 69.7038 55.8512 70.5599 58.0903L74.2961 56.6617C73.6962 55.0928 73.4626 53.2524 73.6634 51.0932L69.6806 50.7228ZM70.5786 58.1375C71.4425 60.2354 72.5937 62.1085 74.038 63.7411L77.034 61.0909C75.9023 59.8115 74.9815 58.3246 74.2774 56.6145L70.5786 58.1375ZM74.0664 63.7726C75.5094 65.3358 77.0808 66.6972 78.781 67.8509L81.027 64.541C79.5912 63.5668 78.2506 62.4082 77.0056 61.0594L74.0664 63.7726ZM78.8493 67.8953C80.5531 68.9528 82.2214 69.8193 83.8534 70.4842L85.3626 66.7798C83.9706 66.2127 82.5029 65.4551 80.9587 64.4967L78.8493 67.8953ZM83.8388 70.4782C85.8222 71.3046 87.5711 72.0976 89.0896 72.8569L90.8784 69.2791C89.2609 68.4704 87.4258 67.6394 85.3772 66.7858L83.8388 70.4782ZM89.1418 72.882C90.5444 73.5332 91.4926 74.227 92.0963 74.9112L95.0957 72.2648C94.0194 71.045 92.5596 70.0588 90.8262 69.254L89.1418 72.882ZM92.1369 74.9559C92.4587 75.2991 92.7002 75.8364 92.5416 76.9069L96.4984 77.4931C96.7878 75.5396 96.4133 73.6689 95.0551 72.2201L92.1369 74.9559ZM92.5223 77.1049C92.4875 77.8339 92.2348 78.5365 91.6813 79.2481L94.8387 81.7039C95.8532 80.3995 96.4405 78.9181 96.5177 77.2951L92.5223 77.1049ZM91.7161 79.2046C91.1442 79.8991 90.3903 80.4769 89.4084 80.9233L91.0636 84.5647C92.5457 83.8911 93.8078 82.9569 94.8039 81.7474L91.7161 79.2046ZM89.4084 80.9233C88.4653 81.352 87.3801 81.584 86.12 81.584V85.584C87.8839 85.584 89.5427 85.256 91.0636 84.5647L89.4084 80.9233ZM86.12 81.584C84.3891 81.584 82.9291 81.2257 81.6884 80.561L79.7996 84.087C81.6949 85.1023 83.8189 85.584 86.12 85.584V81.584ZM81.7636 80.6034C80.4858 79.8462 79.3267 78.8162 78.2907 77.4841L75.1333 79.9399C76.4493 81.6318 77.9782 83.0098 79.7244 84.0446L81.7636 80.6034ZM78.3395 77.5495C77.2987 76.0925 76.3212 74.4064 75.4125 72.482L71.7955 74.19C72.7908 76.2976 73.8853 78.1955 75.0845 79.8745L78.3395 77.5495Z" fill="url(#paint0_linear_1_2)"/>
<defs>
<linearGradient id="paint0_linear_1_2" x1="60.5" y1="4" x2="60.5" y2="125" gradientUnits="userSpaceOnUse">
<stop stop-color="#00B2FF"/>
<stop offset="1" stop-color="#B011D8" stop-opacity="0.17"/>
</linearGradient>
</defs>
</svg>
